<svg xmlns="http://www.w3.org/2000/svg" width="22" height="23" viewBox="0 0 22 23">
    <g fill="#125688" fill-rule="evenodd">
        <path d="M10.947.042c-2.987 0-3.362.013-4.535.066-1.17.053-1.97.24-2.67.511a5.392 5.392 0 0 0-1.948 1.27 5.392 5.392 0 0 0-1.27 1.947c-.271.7-.457 1.5-.51 2.67-.054 1.174-.067 1.548-.067 4.536 0 2.987.013 3.362.067 4.535.053 1.171.239 1.97.51 2.67a5.392 5.392 0 0 0 1.27 1.949 5.392 5.392 0 0 0 1.948 1.268c.7.272 1.5.458 2.67.512 1.173.053 1.548.066 4.535.066 2.988 0 3.362-.013 4.536-.066 1.17-.054 1.97-.24 2.67-.512a5.392 5.392 0 0 0 1.948-1.268 5.392 5.392 0 0 0 1.269-1.949c.272-.7.458-1.499.511-2.67.054-1.173.066-1.548.066-4.535 0-2.988-.012-3.362-.066-4.535-.053-1.171-.24-1.97-.511-2.67A5.392 5.392 0 0 0 20.1 1.887 5.392 5.392 0 0 0 18.153.62c-.7-.272-1.5-.458-2.67-.51-1.174-.054-1.548-.067-4.536-.067m0 1.982c2.937 0 3.285.011 4.445.064 1.073.049 1.655.228 2.043.379.513.2.88.438 1.265.823.385.385.623.751.822 1.264.151.388.33.97.38 2.043.052 1.16.063 1.508.063 4.445 0 2.937-.01 3.285-.064 4.445-.049 1.072-.228 1.655-.379 2.042-.2.514-.437.88-.822 1.265a3.408 3.408 0 0 1-1.265.823c-.388.15-.97.33-2.043.379-1.16.053-1.507.064-4.445.064-2.937 0-3.285-.011-4.445-.064-1.072-.05-1.655-.228-2.042-.379-.514-.2-.88-.438-1.265-.823a3.408 3.408 0 0 1-.823-1.265c-.15-.387-.33-.97-.379-2.042-.052-1.16-.064-1.508-.064-4.445 0-2.937.012-3.285.064-4.445.05-1.073.229-1.655.38-2.043.199-.513.437-.88.822-1.264a3.408 3.408 0 0 1 1.265-.823c.387-.15.97-.33 2.042-.379 1.16-.053 1.508-.064 4.445-.064"/>
        <path d="M10.947 14.57a3.57 3.57 0 1 1 0-7.14 3.57 3.57 0 0 1 0 7.14m0-9.07a5.5 5.5 0 1 0 0 11 5.5 5.5 0 0 0 0-11M18.17 4.987a1.32 1.32 0 1 1-2.64 0 1.32 1.32 0 0 1 2.64 0"/>
    </g>
</svg>
