<svg xmlns="http://www.w3.org/2000/svg" width="24" height="24" viewBox="0 0 24 24">
    <path fill="#00aced" fill-rule="evenodd" d="M21.317 6.874v.59c0 6.351-4.92 13.736-13.864 13.736-2.832 0-5.366-.738-7.453-2.215h1.193c2.236 0 4.472-.739 6.111-2.068-2.087 0-3.875-1.477-4.62-3.397.297 0 .596.148.894.148.447 0 .894 0 1.341-.148a4.779 4.779 0 0 1-3.876-4.726c.597.295 1.342.59 2.237.59-1.342-.886-2.237-2.362-2.237-3.987 0-.886.299-1.772.597-2.51C4.025 5.84 7.602 7.76 11.776 7.906c-.149-.295-.149-.738-.149-1.033 0-2.659 2.236-4.874 4.92-4.874 1.341 0 2.683.59 3.577 1.477a8.076 8.076 0 0 0 3.13-1.182c-.297 1.182-1.192 2.068-2.086 2.659 1.043-.148 1.938-.443 2.832-.739-.894 1.182-1.789 2.068-2.683 2.659z"/>
</svg>
